<?xml version="1.0" encoding="UTF-8" standalone="no"?>
<!DOCTYPE svg PUBLIC "-//W3C//DTD SVG 1.1//EN" "http://www.w3.org/Graphics/SVG/1.1/DTD/svg11.dtd">
<svg version="1.1" xmlns="http://www.w3.org/2000/svg" xmlns:xlink="http://www.w3.org/1999/xlink" preserveAspectRatio="xMidYMid meet" viewBox="0 0 640 640" width="512" height="512"><defs><path d="M437.67 326.82C435.97 326.88 434.52 326.33 433.31 325.16C432.53 324.4 431.22 322.74 431.24 319.99C431.24 319.91 431.25 319.24 431.25 319.16C431.25 289.56 419.65 261.8 398.6 241C377.54 220.19 349.66 208.9 320 209.28C289.92 209.64 260.76 222.24 239.99 243.84C219.72 264.92 209 292.43 209.78 321.31C211.35 378.97 259.73 427.45 317.62 429.37C330.73 429.81 344.69 427.61 357.97 423.01C371.01 418.49 377.93 404.25 373.41 391.2C368.9 378.16 354.65 371.24 341.61 375.76C334.16 378.33 326.23 379.62 319.28 379.4C287.87 378.35 260.62 351.13 259.77 319.95C259.35 304.56 265.13 289.85 276.03 278.5C287.58 266.49 303.83 259.48 320.6 259.28C336.81 259.07 351.97 265.23 363.45 276.57C374.92 287.91 381.24 303.03 381.24 319.16C381.24 319.21 381.24 319.62 381.24 319.67C381.12 335.25 387.43 350.36 398.56 361.12C409.68 371.86 424.3 377.43 439.76 376.78C441.04 376.73 442.34 376.72 443.64 376.74C475.25 377.43 501.57 403.65 502.31 435.19C502.69 451.56 496.58 467.04 485.1 478.78C473.69 490.46 458.49 496.89 442.3 496.89C432.95 496.89 423.52 494.44 413.49 489.39C384.41 474.76 348.65 485 332.09 512.69C321.22 530.86 302.16 541.75 281.04 541.9C249.45 540.63 223.14 514.62 222.3 483.73C222.26 482.35 222.27 480.94 222.33 479.55C222.99 463.55 216.92 448.1 205.67 437.16C194.65 426.43 179.43 420.88 163.9 421.95C162.49 422.04 161.07 422.09 159.67 422.09C126.97 422.09 100.66 396.51 99.79 363.85C99.78 363.7 99.78 363.55 99.77 363.4C99.89 352.94 101.76 344.62 105.63 337.29C112.07 325.07 107.39 309.95 95.17 303.51C82.96 297.07 67.84 301.75 61.39 313.97C53.56 328.82 49.76 345.35 49.76 364.52C49.76 365.23 49.79 365.94 49.85 366.64C50.97 394.83 62.69 421.14 82.94 440.89C103.59 461.01 130.83 472.09 159.67 472.09C162.2 472.09 164.78 472.01 167.32 471.83C168.77 471.73 169.89 472.11 170.79 472.99C171.42 473.6 172.46 475 172.36 477.49C172.26 480.01 172.24 482.57 172.31 485.09C173.07 513.07 184.74 539.55 205.16 559.65C225.35 579.51 251.86 590.96 279.8 591.89C280.07 591.9 280.35 591.9 280.63 591.9C319.08 591.9 355.24 571.39 375 538.36C378.18 533.03 385.22 531.15 391.02 534.06C407.95 542.58 425.2 546.9 442.3 546.9C472.07 546.9 499.97 535.12 520.87 513.72C541.83 492.27 552.99 463.96 552.3 434.02C551.64 405.74 540.13 379.06 519.91 358.91C499.71 338.78 473 327.36 444.72 326.75C442.37 326.7 440 326.72 437.67 326.82Z" id="a3hNo79248"></path><path d="M567.95 198.4C547.27 178.06 519.99 166.86 491.15 166.86C488.6 166.86 486.02 166.95 483.49 167.12C481.91 167.23 480.66 166.85 479.78 165.99C478.84 165.08 478.38 163.69 478.45 161.99C478.56 159.47 478.57 156.91 478.5 154.39C477.74 126.4 466.05 99.98 445.57 80.01C425.43 60.37 398.54 48.1 369.79 48.1C330.56 48.1 295.68 67.92 275.81 101.12C272.77 106.2 266.23 108.15 260.61 105.79C243.36 95.09 223.38 89.45 202.7 89.45C141.8 89.45 92.26 138.75 92.26 199.36C92.26 238.64 113.74 275.46 148.32 295.44C160.27 302.35 175.56 298.26 182.48 286.31C189.38 274.35 185.29 259.06 173.34 252.15C154.46 241.24 142.26 220.52 142.26 199.36C142.26 166.33 169.38 139.45 202.7 139.45C214.36 139.45 225.55 142.68 235.04 148.78C235.78 149.26 236.54 149.69 237.33 150.09C266.41 164.72 302.16 154.48 318.73 126.79C329.4 108.94 348.46 98.24 369.77 98.1C401.37 99.37 427.68 125.14 428.52 155.75C428.55 157.13 428.54 158.54 428.49 159.93C427.84 175.76 433.82 191.03 444.9 201.82C455.92 212.55 471.23 218.09 486.92 217.01C488.31 216.91 489.74 216.86 491.15 216.86C523.29 216.86 550.16 243.22 551.03 275.63C551.03 275.76 551.04 275.89 551.04 276.02C550.88 285.5 548.58 294.51 544.19 302.84C537.75 315.06 542.43 330.18 554.64 336.62C558.36 338.58 562.35 339.51 566.28 339.51C575.26 339.51 583.94 334.66 588.42 326.16C596.69 310.48 601.06 292.78 601.06 274.96C601.06 274.24 601.03 273.54 600.97 272.84C599.85 244.66 588.15 218.27 567.95 198.4Z" id="fwOKx7v9h"></path></defs><g><g><g><use xlink:href="#a3hNo79248" opacity="1" fill="#0023c4" fill-opacity="1"></use><g><use xlink:href="#a3hNo79248" opacity="1" fill-opacity="0" stroke="#000000" stroke-width="1" stroke-opacity="0"></use></g></g><g><use xlink:href="#fwOKx7v9h" opacity="1" fill="#0023c4" fill-opacity="1"></use><g><use xlink:href="#fwOKx7v9h" opacity="1" fill-opacity="0" stroke="#000000" stroke-width="1" stroke-opacity="0"></use></g></g></g></g></svg>