<?xml version="1.0" encoding="UTF-8" standalone="no"?>
<!DOCTYPE svg PUBLIC "-//W3C//DTD SVG 1.1//EN" "http://www.w3.org/Graphics/SVG/1.1/DTD/svg11.dtd">
<svg version="1.1" xmlns="http://www.w3.org/2000/svg" xmlns:xlink="http://www.w3.org/1999/xlink" preserveAspectRatio="xMidYMid meet" viewBox="0 0 640 640" width="512" height="512"><defs><path d="M406.32 324.13C405.7 323.52 404.65 322.19 404.66 319.99C404.66 319.93 404.67 319.39 404.67 319.33C404.67 295.65 395.39 273.44 378.55 256.8C361.7 240.15 339.4 231.12 315.67 231.42C291.61 231.71 268.28 241.79 251.66 259.07C235.45 275.94 226.87 297.94 227.5 321.05C228.75 367.18 267.46 405.96 313.77 407.5C324.26 407.85 335.42 406.09 346.05 402.41C356.48 398.79 362.02 387.4 358.4 376.96C354.79 366.53 343.39 360.99 332.96 364.61C327 366.66 320.66 367.7 315.1 367.52C289.97 366.68 268.17 344.9 267.49 319.96C267.15 307.65 271.78 295.88 280.5 286.8C289.74 277.19 302.74 271.58 316.15 271.42C329.12 271.26 341.25 276.18 350.43 285.26C359.61 294.33 364.66 306.42 364.66 319.33C364.66 319.37 364.66 319.7 364.66 319.74C364.57 332.2 369.62 344.29 378.52 352.9C387.42 361.49 399.11 365.94 411.48 365.42C412.5 365.38 413.54 365.38 414.58 365.39C439.87 365.94 460.93 386.92 461.52 412.15C461.82 425.25 456.94 437.63 447.75 447.02C438.62 456.37 426.46 461.51 413.51 461.51C406.03 461.51 398.49 459.55 390.46 455.51C367.2 443.81 338.59 452 325.34 474.15C316.65 488.69 301.4 497.4 284.5 497.52C259.23 496.5 238.18 475.7 237.51 450.98C237.48 449.88 237.49 448.75 237.54 447.64C238.06 434.84 233.21 422.48 224.21 413.73C215.39 405.14 203.22 400.7 190.79 401.56C189.66 401.63 188.53 401.67 187.41 401.67C161.25 401.67 140.2 381.21 139.5 355.08C139.5 354.96 139.5 354.84 139.49 354.72C139.58 346.35 141.08 339.7 144.18 333.83C149.33 324.06 145.58 311.96 135.81 306.81C126.04 301.66 113.94 305.4 108.78 315.18C102.52 327.06 99.48 340.28 99.48 355.62C99.48 356.18 99.5 356.75 99.55 357.31C100.45 379.86 109.82 400.91 126.02 416.71C142.54 432.81 164.34 441.67 187.41 441.67C189.43 441.67 191.5 441.61 193.53 441.46C194.69 441.38 195.58 441.69 196.3 442.39C196.81 442.88 197.64 444 197.56 445.99C197.48 448.01 197.46 450.06 197.52 452.07C198.13 474.46 207.46 495.64 223.8 511.72C239.95 527.61 261.16 536.77 283.51 537.51C283.73 537.52 283.95 537.52 284.18 537.52C314.94 537.52 343.86 521.11 359.67 494.69C362.22 490.42 367.85 488.92 372.49 491.25C386.03 498.06 399.83 501.52 413.51 501.52C437.33 501.52 459.65 492.1 476.37 474.98C493.14 457.82 502.06 435.17 501.51 411.22C500.98 388.59 491.78 367.25 475.6 351.13C459.44 335.02 438.07 325.89 415.45 325.4C413.57 325.36 411.67 325.38 409.81 325.46C408.45 325.5 407.29 325.06 406.32 324.13Z" id="aN2ALMWr"></path><path d="M406.32 324.13C405.7 323.52 404.65 322.19 404.66 319.99C404.66 319.93 404.67 319.39 404.67 319.33C404.67 295.65 395.39 273.44 378.55 256.8C361.7 240.15 339.4 231.12 315.67 231.42C291.61 231.71 268.28 241.79 251.66 259.07C235.45 275.94 226.87 297.94 227.5 321.05C228.75 367.18 267.46 405.96 313.77 407.5C324.26 407.85 335.42 406.09 346.05 402.41C356.48 398.79 362.02 387.4 358.4 376.96C354.79 366.53 343.39 360.99 332.96 364.61C327 366.66 320.66 367.7 315.1 367.52C289.97 366.68 268.17 344.9 267.49 319.96C267.15 307.65 271.78 295.88 280.5 286.8C289.74 277.19 302.74 271.58 316.15 271.42C329.12 271.26 341.25 276.18 350.43 285.26C359.61 294.33 364.66 306.42 364.66 319.33C364.66 319.37 364.66 319.7 364.66 319.74C364.57 332.2 369.62 344.29 378.52 352.9C387.42 361.49 399.11 365.94 411.48 365.42C412.5 365.38 413.54 365.38 414.58 365.39C439.87 365.94 460.93 386.92 461.52 412.15C461.82 425.25 456.94 437.63 447.75 447.02C438.62 456.37 426.46 461.51 413.51 461.51C406.03 461.51 398.49 459.55 390.46 455.51C367.2 443.81 338.59 452 325.34 474.15C316.65 488.69 301.4 497.4 284.5 497.52C259.23 496.5 238.18 475.7 237.51 450.98C237.48 449.88 237.49 448.75 237.54 447.64C238.06 434.84 233.21 422.48 224.21 413.73C215.39 405.14 203.22 400.7 190.79 401.56C189.66 401.63 188.53 401.67 187.41 401.67C161.25 401.67 140.2 381.21 139.5 355.08C139.5 354.96 139.5 354.84 139.49 354.72C139.58 346.35 141.08 339.7 144.18 333.83C149.33 324.06 145.58 311.96 135.81 306.81C126.04 301.66 113.94 305.4 108.78 315.18C102.52 327.06 99.48 340.28 99.48 355.62C99.48 356.18 99.5 356.75 99.55 357.31C100.45 379.86 109.82 400.91 126.02 416.71C142.54 432.81 164.34 441.67 187.41 441.67C189.43 441.67 191.5 441.61 193.53 441.46C194.69 441.38 195.58 441.69 196.3 442.39C196.81 442.88 197.64 444 197.56 445.99C197.48 448.01 197.46 450.06 197.52 452.07C198.13 474.46 207.46 495.64 223.8 511.72C239.95 527.61 261.16 536.77 283.51 537.51C283.73 537.52 283.95 537.52 284.18 537.52C314.94 537.52 343.86 521.11 359.67 494.69C362.22 490.42 367.85 488.92 372.49 491.25C386.03 498.06 399.83 501.52 413.51 501.52C437.33 501.52 459.65 492.1 476.37 474.98C493.14 457.82 502.06 435.17 501.51 411.22C500.98 388.59 491.78 367.25 475.6 351.13C459.44 335.02 438.07 325.89 415.45 325.4C413.57 325.36 411.67 325.38 409.81 325.46C408.45 325.5 407.29 325.06 406.32 324.13Z" id="ayh7WdHfv"></path><path d="M452.59 197.49C450.55 197.49 448.49 197.56 446.46 197.7C445.2 197.78 444.2 197.48 443.5 196.79C442.74 196.06 442.38 194.95 442.43 193.59C442.52 191.58 442.53 189.53 442.47 187.51C441.86 165.12 432.51 143.98 416.13 128.01C400.02 112.3 378.5 102.48 355.5 102.48C324.12 102.48 296.22 118.34 280.32 144.9C277.89 148.96 272.66 150.52 268.16 148.63C254.36 140.07 238.38 135.56 221.83 135.56C173.11 135.56 133.48 175 133.48 223.49C133.48 254.91 150.66 284.37 178.33 300.35C187.89 305.88 200.12 302.61 205.66 293.05C211.18 283.48 207.9 271.25 198.34 265.72C183.24 256.99 173.48 240.42 173.48 223.49C173.48 197.06 195.18 175.56 221.83 175.56C231.16 175.56 240.11 178.14 247.7 183.02C248.3 183.41 248.9 183.75 249.54 184.07C272.8 195.78 301.4 187.58 314.66 165.43C323.19 151.15 338.44 142.59 355.49 142.48C380.77 143.5 401.82 164.11 402.49 188.6C402.51 189.7 402.5 190.83 402.46 191.94C401.94 204.61 406.73 216.82 415.59 225.46C424.41 234.04 436.66 238.47 449.21 237.61C450.32 237.53 451.46 237.49 452.59 237.49C478.3 237.49 499.8 258.58 500.5 284.5C500.5 284.61 500.5 284.71 500.5 284.82C500.38 292.4 498.54 299.61 495.02 306.27C489.87 316.05 493.62 328.14 503.38 333.3C506.36 334.86 509.55 335.61 512.7 335.61C519.88 335.61 526.82 331.73 530.41 324.93C537.02 312.38 540.52 298.22 540.52 283.97C540.52 283.39 540.5 282.83 540.45 282.27C539.55 259.73 530.19 238.62 514.03 222.72C497.49 206.45 475.66 197.49 452.59 197.49Z" id="e1trOkKVob"></path><path d="M452.59 197.49C450.55 197.49 448.49 197.56 446.46 197.7C445.2 197.78 444.2 197.48 443.5 196.79C442.74 196.06 442.38 194.95 442.43 193.59C442.52 191.58 442.53 189.53 442.47 187.51C441.86 165.12 432.51 143.98 416.13 128.01C400.02 112.3 378.5 102.48 355.5 102.48C324.12 102.48 296.22 118.34 280.32 144.9C277.89 148.96 272.66 150.52 268.16 148.63C254.36 140.07 238.38 135.56 221.83 135.56C173.11 135.56 133.48 175 133.48 223.49C133.48 254.91 150.66 284.37 178.33 300.35C187.89 305.88 200.12 302.61 205.66 293.05C211.18 283.48 207.9 271.25 198.34 265.72C183.24 256.99 173.48 240.42 173.48 223.49C173.48 197.06 195.18 175.56 221.83 175.56C231.16 175.56 240.11 178.14 247.7 183.02C248.3 183.41 248.9 183.75 249.54 184.07C272.8 195.78 301.4 187.58 314.66 165.43C323.19 151.15 338.44 142.59 355.49 142.48C380.77 143.5 401.82 164.11 402.49 188.6C402.51 189.7 402.5 190.83 402.46 191.94C401.94 204.61 406.73 216.82 415.59 225.46C424.41 234.04 436.66 238.47 449.21 237.61C450.32 237.53 451.46 237.49 452.59 237.49C478.3 237.49 499.8 258.58 500.5 284.5C500.5 284.61 500.5 284.71 500.5 284.82C500.38 292.4 498.54 299.61 495.02 306.27C489.87 316.05 493.62 328.14 503.38 333.3C506.36 334.86 509.55 335.61 512.7 335.61C519.88 335.61 526.82 331.73 530.41 324.93C537.02 312.38 540.52 298.22 540.52 283.97C540.52 283.39 540.5 282.83 540.45 282.27C539.55 259.73 530.19 238.62 514.03 222.72C497.49 206.45 475.66 197.49 452.59 197.49Z" id="c17ucPSBFV"></path></defs><g><g><g><use xlink:href="#aN2ALMWr" opacity="1" fill="#3378ff" fill-opacity="1"></use><g><use xlink:href="#aN2ALMWr" opacity="1" fill-opacity="0" stroke="#000000" stroke-width="1" stroke-opacity="0"></use></g></g><g><use xlink:href="#ayh7WdHfv" opacity="1" fill="#000000" fill-opacity="0"></use><g><use xlink:href="#ayh7WdHfv" opacity="1" fill-opacity="0" stroke="#000000" stroke-width="1" stroke-opacity="0"></use></g></g><g><use xlink:href="#e1trOkKVob" opacity="1" fill="#3378ff" fill-opacity="1"></use><g><use xlink:href="#e1trOkKVob" opacity="1" fill-opacity="0" stroke="#000000" stroke-width="1" stroke-opacity="0"></use></g></g><g><use xlink:href="#c17ucPSBFV" opacity="1" fill="#000000" fill-opacity="0"></use><g><use xlink:href="#c17ucPSBFV" opacity="1" fill-opacity="0" stroke="#000000" stroke-width="1" stroke-opacity="0"></use></g></g></g></g></svg>